<svg width="54" height="54" viewBox="0 0 54 54" fill="none" xmlns="http://www.w3.org/2000/svg">
<g filter="url(#filter0_d_4415_25205)">
<circle cx="27" cy="23" r="22.5" transform="rotate(90 27 23)" stroke="#D3BF89" shape-rendering="crispEdges"/>
</g>
<path d="M16.6464 22.6464C16.4512 22.8417 16.4512 23.1583 16.6464 23.3536L19.8284 26.5355C20.0237 26.7308 20.3403 26.7308 20.5355 26.5355C20.7308 26.3403 20.7308 26.0237 20.5355 25.8284L17.7071 23L20.5355 20.1716C20.7308 19.9763 20.7308 19.6597 20.5355 19.4645C20.3403 19.2692 20.0237 19.2692 19.8284 19.4645L16.6464 22.6464ZM17 23V23.5H37V23V22.5H17V23Z" fill="#FFF8EE"/>
<defs>
<filter id="filter0_d_4415_25205" x="0" y="0" width="54" height="54" filterUnits="userSpaceOnUse" color-interpolation-filters="sRGB">
<feFlood flood-opacity="0" result="BackgroundImageFix"/>
<feColorMatrix in="SourceAlpha" type="matrix" values="0 0 0 0 0 0 0 0 0 0 0 0 0 0 0 0 0 0 127 0" result="hardAlpha"/>
<feOffset dy="4"/>
<feGaussianBlur stdDeviation="2"/>
<feComposite in2="hardAlpha" operator="out"/>
<feColorMatrix type="matrix" values="0 0 0 0 0 0 0 0 0 0 0 0 0 0 0 0 0 0 0.25 0"/>
<feBlend mode="normal" in2="BackgroundImageFix" result="effect1_dropShadow_4415_25205"/>
<feBlend mode="normal" in="SourceGraphic" in2="effect1_dropShadow_4415_25205" result="shape"/>
</filter>
</defs>
</svg>
