<svg width="54" height="54" viewBox="0 0 54 54" fill="none" xmlns="http://www.w3.org/2000/svg">
<g filter="url(#filter0_d_4415_25208)">
<circle cx="23" cy="23" r="22.5" transform="matrix(4.37114e-08 1 1 -4.37114e-08 4 0)" stroke="#D3BF89" shape-rendering="crispEdges"/>
</g>
<path d="M37.3516 23.3536C37.5469 23.1583 37.5469 22.8417 37.3516 22.6464L34.1696 19.4645C33.9744 19.2692 33.6578 19.2692 33.4625 19.4645C33.2673 19.6597 33.2673 19.9763 33.4625 20.1716L36.2909 23L33.4625 25.8284C33.2673 26.0237 33.2673 26.3403 33.4625 26.5355C33.6578 26.7308 33.9744 26.7308 34.1696 26.5355L37.3516 23.3536ZM36.998 23L36.998 22.5L16.998 22.5L16.998 23L16.998 23.5L36.998 23.5L36.998 23Z" fill="#FFF8EE"/>
<defs>
<filter id="filter0_d_4415_25208" x="0" y="0" width="54" height="54" filterUnits="userSpaceOnUse" color-interpolation-filters="sRGB">
<feFlood flood-opacity="0" result="BackgroundImageFix"/>
<feColorMatrix in="SourceAlpha" type="matrix" values="0 0 0 0 0 0 0 0 0 0 0 0 0 0 0 0 0 0 127 0" result="hardAlpha"/>
<feOffset dy="4"/>
<feGaussianBlur stdDeviation="2"/>
<feComposite in2="hardAlpha" operator="out"/>
<feColorMatrix type="matrix" values="0 0 0 0 0 0 0 0 0 0 0 0 0 0 0 0 0 0 0.25 0"/>
<feBlend mode="normal" in2="BackgroundImageFix" result="effect1_dropShadow_4415_25208"/>
<feBlend mode="normal" in="SourceGraphic" in2="effect1_dropShadow_4415_25208" result="shape"/>
</filter>
</defs>
</svg>
